0
SECTION
2
HEADER
9
$INSUNITS
70
4
9
$ACADVER
1
AC1014
9
$HANDSEED
5
FFFF
0
ENDSEC
0
SECTION
2
TABLES
0
TABLE
2
VPORT
5
8
100
AcDbSymbolTable
0
ENDTAB
0
TABLE
2
LTYPE
5
5
100
AcDbSymbolTable
0
LTYPE
5
14
100
AcDbSymbolTableRecord
100
AcDbLinetypeTableRecord
2
BYBLOCK
70
0
0
LTYPE
5
15
100
AcDbSymbolTableRecord
100
AcDbLinetypeTableRecord
2
BYLAYER
70
0
0
ENDTAB
0
TABLE
2
LAYER
5
2
100
AcDbSymbolTable
70
2
0
LAYER
5
50
100
AcDbSymbolTableRecord
100
AcDbLayerTableRecord
2
0
70
0
6
CONTINUOUS
0
ENDTAB
0
TABLE
2
STYLE
5
3
100
AcDbSymbolTable
70
1
0
STYLE
5
11
100
AcDbSymbolTableRecord
100
AcDbTextStyleTableRecord
2
STANDARD
70
0
0
ENDTAB
0
TABLE
2
VIEW
5
6
100
AcDbSymbolTable
70
0
0
ENDTAB
0
TABLE
2
UCS
5
7
100
AcDbSymbolTable
70
0
0
ENDTAB
0
TABLE
2
APPID
5
9
100
AcDbSymbolTable
70
2
0
APPID
5
12
100
AcDbSymbolTableRecord
100
AcDbRegAppTableRecord
2
ACAD
70
0
0
ENDTAB
0
TABLE
2
DIMSTYLE
5
A
100
AcDbSymbolTable
70
1
0
ENDTAB
0
TABLE
2
BLOCK_RECORD
5
1
100
AcDbSymbolTable
70
1
0
BLOCK_RECORD
5
1F
100
AcDbSymbolTableRecord
100
AcDbBlockTableRecord
2
*MODEL_SPACE
0
BLOCK_RECORD
5
1B
100
AcDbSymbolTableRecord
100
AcDbBlockTableRecord
2
*PAPER_SPACE
0
ENDTAB
0
ENDSEC
0
SECTION
2
BLOCKS
0
BLOCK
5
20
100
AcDbEntity
100
AcDbBlockBegin
2
*MODEL_SPACE
0
ENDBLK
5
21
100
AcDbEntity
100
AcDbBlockEnd
0
BLOCK
5
1C
100
AcDbEntity
100
AcDbBlockBegin
2
*PAPER_SPACE
0
ENDBLK
5
1D
100
AcDbEntity
100
AcDbBlockEnd
0
ENDSEC
0
SECTION
2
ENTITIES
0
CIRCLE
5
100
100
AcDbEntity
8
0
100
AcDbCircle
10
-27.900000000000034
20
12.899999999999999
30
0
40
1.5000000000000002
210
0
220
0
230
1
0
CIRCLE
5
101
100
AcDbEntity
8
0
100
AcDbCircle
10
78.699999999999989
20
12.899999999999999
30
0
40
1.5000000000000002
210
0
220
0
230
1
0
CIRCLE
5
102
100
AcDbEntity
8
0
100
AcDbCircle
10
78.699999999999989
20
-63.700000000000003
30
0
40
1.5000000000000002
210
0
220
0
230
1
0
CIRCLE
5
103
100
AcDbEntity
8
0
100
AcDbCircle
10
-27.900000000000034
20
-63.700000000000003
30
0
40
1.25
210
0
220
0
230
1
0
LWPOLYLINE
5
104
100
AcDbEntity
8
0
100
AcDbPolyline
90
4
70
1
43
0.0
10
-22.100000000000016
20
15.899999999999999
10
-22.100000000000016
20
19.100000000000001
10
-12.700000000000017
20
19.100000000000001
10
-12.700000000000017
20
15.899999999999999
0
LWPOLYLINE
5
105
100
AcDbEntity
8
0
100
AcDbPolyline
90
4
70
1
43
0.0
10
-0.70000000000001616
20
19.100000000000001
10
8.6999999999999833
20
19.100000000000001
10
8.6999999999999833
20
15.899999999999999
10
-0.70000000000001616
20
15.899999999999999
0
LWPOLYLINE
5
106
100
AcDbEntity
8
0
100
AcDbPolyline
90
4
70
1
43
0.0
10
72.899999999999991
20
15.899999999999999
10
63.499999999999986
20
15.899999999999999
10
63.499999999999986
20
19.100000000000001
10
72.899999999999991
20
19.100000000000001
0
LWPOLYLINE
5
107
100
AcDbEntity
8
0
100
AcDbPolyline
90
4
70
1
43
0.0
10
51.499999999999986
20
15.899999999999999
10
42.09999999999998
20
15.899999999999999
10
42.09999999999998
20
19.100000000000001
10
51.499999999999986
20
19.100000000000001
0
LWPOLYLINE
5
108
100
AcDbEntity
8
0
100
AcDbPolyline
90
4
70
1
43
0.0
10
30.09999999999998
20
15.899999999999999
10
20.699999999999985
20
15.899999999999999
10
20.699999999999985
20
19.100000000000001
10
30.09999999999998
20
19.100000000000001
0
LWPOLYLINE
5
109
100
AcDbEntity
8
0
100
AcDbPolyline
90
4
70
1
43
0.0
10
84.899999999999977
20
5.5999999999999943
10
81.699999999999989
20
5.5999999999999943
10
81.699999999999989
20
15.899999999999999
10
84.899999999999977
20
15.899999999999999
0
LWPOLYLINE
5
110
100
AcDbEntity
8
0
100
AcDbPolyline
90
4
70
1
43
0.0
10
81.699999999999989
20
-20.400000000000009
10
84.899999999999977
20
-20.400000000000009
10
84.899999999999977
20
-30.700000000000003
10
81.699999999999989
20
-30.700000000000003
0
LWPOLYLINE
5
111
100
AcDbEntity
8
0
100
AcDbPolyline
90
4
70
1
43
0.0
10
81.699999999999989
20
-66.700000000000003
10
81.699999999999989
20
-56.70000000000001
10
84.899999999999977
20
-56.70000000000001
10
84.899999999999977
20
-66.700000000000003
0
LWPOLYLINE
5
112
100
AcDbEntity
8
0
100
AcDbPolyline
90
4
70
1
43
0.0
10
-22.100000000000016
20
-69.900000000000006
10
-22.100000000000016
20
-66.700000000000003
10
-12.700000000000017
20
-66.700000000000003
10
-12.700000000000017
20
-69.900000000000006
0
LWPOLYLINE
5
113
100
AcDbEntity
8
0
100
AcDbPolyline
90
4
70
1
43
0.0
10
-0.70000000000001616
20
-66.700000000000003
10
8.6999999999999833
20
-66.700000000000003
10
8.6999999999999833
20
-69.900000000000006
10
-0.70000000000001616
20
-69.900000000000006
0
LWPOLYLINE
5
114
100
AcDbEntity
8
0
100
AcDbPolyline
90
4
70
1
43
0.0
10
72.899999999999991
20
-69.900000000000006
10
63.499999999999986
20
-69.900000000000006
10
63.499999999999986
20
-66.700000000000003
10
72.899999999999991
20
-66.700000000000003
0
LWPOLYLINE
5
115
100
AcDbEntity
8
0
100
AcDbPolyline
90
4
70
1
43
0.0
10
51.499999999999986
20
-69.900000000000006
10
42.09999999999998
20
-69.900000000000006
10
42.09999999999998
20
-66.700000000000003
10
51.499999999999986
20
-66.700000000000003
0
LWPOLYLINE
5
116
100
AcDbEntity
8
0
100
AcDbPolyline
90
4
70
1
43
0.0
10
30.09999999999998
20
-69.900000000000006
10
20.699999999999985
20
-69.900000000000006
10
20.699999999999985
20
-66.700000000000003
10
30.09999999999998
20
-66.700000000000003
0
LWPOLYLINE
5
117
100
AcDbEntity
8
0
100
AcDbPolyline
90
4
70
1
43
0.0
10
-30.900000000000034
20
5.5999999999999943
10
-34.100000000000037
20
5.5999999999999943
10
-34.100000000000037
20
15.899999999999999
10
-30.900000000000034
20
15.899999999999999
0
LWPOLYLINE
5
118
100
AcDbEntity
8
0
100
AcDbPolyline
90
4
70
1
43
0.0
10
-34.100000000000037
20
-20.400000000000009
10
-30.900000000000034
20
-20.400000000000009
10
-30.900000000000034
20
-30.700000000000003
10
-34.100000000000037
20
-30.700000000000003
0
LWPOLYLINE
5
119
100
AcDbEntity
8
0
100
AcDbPolyline
90
4
70
1
43
0.0
10
-34.100000000000037
20
-66.700000000000003
10
-34.100000000000037
20
-56.70000000000001
10
-30.900000000000034
20
-56.70000000000001
10
-30.900000000000034
20
-66.700000000000003
0
CIRCLE
5
120
100
AcDbEntity
8
0
100
AcDbCircle
10
50.79999999999999
20
0
30
0
40
1.3999999999999999
210
0
220
-0
230
1
0
CIRCLE
5
121
100
AcDbEntity
8
0
100
AcDbCircle
10
0
20
0
30
0
40
1.3999999999999999
210
0
220
-0
230
1
0
CIRCLE
5
122
100
AcDbEntity
8
0
100
AcDbCircle
10
50.79999999999999
20
-50.799999999999997
30
0
40
1.3999999999999999
210
0
220
-0
230
1
0
CIRCLE
5
123
100
AcDbEntity
8
0
100
AcDbCircle
10
0
20
-50.799999999999997
30
0
40
1.3999999999999999
210
0
220
-0
230
1
0
LWPOLYLINE
5
124
100
AcDbEntity
8
0
100
AcDbPolyline
90
8
70
1
43
0.0
10
-37.100000000000016
20
-64.900000000000006
42
0.41421356237309409
10
-29.100000000000009
20
-72.899999999999991
10
79.899999999999991
20
-72.900000000000006
42
0.4142135623730947
10
87.899999999999991
20
-64.900000000000006
10
87.899999999999991
20
14.100000000000001
42
0.41421356237309442
10
79.899999999999977
20
22.100000000000009
10
-29.100000000000001
20
22.100000000000001
42
0.41421356237309603
10
-37.100000000000009
20
14.1
0
CIRCLE
5
125
100
AcDbEntity
8
0
100
AcDbCircle
10
-14.600000000000009
20
9.5999999999999996
30
0
40
2.5
210
0
220
0
230
1
0
CIRCLE
5
126
100
AcDbEntity
8
0
100
AcDbCircle
10
-14.600000000000009
20
-60.399999999999999
30
0
40
2.5
210
0
220
0
230
1
0
CIRCLE
5
127
100
AcDbEntity
8
0
100
AcDbCircle
10
65.399999999999991
20
9.5999999999999996
30
0
40
2.5
210
0
220
0
230
1
0
CIRCLE
5
128
100
AcDbEntity
8
0
100
AcDbCircle
10
65.399999999999991
20
-60.399999999999999
30
0
40
2.5
210
0
220
0
230
1
0
LWPOLYLINE
5
129
100
AcDbEntity
8
0
100
AcDbPolyline
90
8
70
1
43
0.0
10
42.899999999999991
20
-9.3999999999999986
10
42.899999999999991
20
-41.399999999999999
42
-0.41421356237309509
10
38.899999999999991
20
-45.399999999999991
10
11.899999999999991
20
-45.399999999999999
42
-0.41421356237309509
10
7.8999999999999897
20
-41.399999999999999
10
7.8999999999999906
20
-9.3999999999999986
42
-0.41421356237309509
10
11.899999999999991
20
-5.3999999999999995
10
38.899999999999991
20
-5.3999999999999968
42
-0.41421356237309503
0
ENDSEC
0
SECTION
2
OBJECTS
0
DICTIONARY
5
C
100
AcDbDictionary
3
ACAD_GROUP
350
D
3
ACAD_MLINESTYLE
350
17
0
DICTIONARY
5
D
100
AcDbDictionary
0
DICTIONARY
5
1A
330
C
100
AcDbDictionary
0
DICTIONARY
5
17
100
AcDbDictionary
0
ENDSEC
0
EOF
