0
SECTION
2
HEADER
9
$INSUNITS
70
4
9
$ACADVER
1
AC1014
9
$HANDSEED
5
FFFF
0
ENDSEC
0
SECTION
2
TABLES
0
TABLE
2
VPORT
5
8
100
AcDbSymbolTable
0
ENDTAB
0
TABLE
2
LTYPE
5
5
100
AcDbSymbolTable
0
LTYPE
5
14
100
AcDbSymbolTableRecord
100
AcDbLinetypeTableRecord
2
BYBLOCK
70
0
0
LTYPE
5
15
100
AcDbSymbolTableRecord
100
AcDbLinetypeTableRecord
2
BYLAYER
70
0
0
ENDTAB
0
TABLE
2
LAYER
5
2
100
AcDbSymbolTable
70
2
0
LAYER
5
50
100
AcDbSymbolTableRecord
100
AcDbLayerTableRecord
2
0
70
0
6
CONTINUOUS
0
ENDTAB
0
TABLE
2
STYLE
5
3
100
AcDbSymbolTable
70
1
0
STYLE
5
11
100
AcDbSymbolTableRecord
100
AcDbTextStyleTableRecord
2
STANDARD
70
0
0
ENDTAB
0
TABLE
2
VIEW
5
6
100
AcDbSymbolTable
70
0
0
ENDTAB
0
TABLE
2
UCS
5
7
100
AcDbSymbolTable
70
0
0
ENDTAB
0
TABLE
2
APPID
5
9
100
AcDbSymbolTable
70
2
0
APPID
5
12
100
AcDbSymbolTableRecord
100
AcDbRegAppTableRecord
2
ACAD
70
0
0
ENDTAB
0
TABLE
2
DIMSTYLE
5
A
100
AcDbSymbolTable
70
1
0
ENDTAB
0
TABLE
2
BLOCK_RECORD
5
1
100
AcDbSymbolTable
70
1
0
BLOCK_RECORD
5
1F
100
AcDbSymbolTableRecord
100
AcDbBlockTableRecord
2
*MODEL_SPACE
0
BLOCK_RECORD
5
1B
100
AcDbSymbolTableRecord
100
AcDbBlockTableRecord
2
*PAPER_SPACE
0
ENDTAB
0
ENDSEC
0
SECTION
2
BLOCKS
0
BLOCK
5
20
100
AcDbEntity
100
AcDbBlockBegin
2
*MODEL_SPACE
0
ENDBLK
5
21
100
AcDbEntity
100
AcDbBlockEnd
0
BLOCK
5
1C
100
AcDbEntity
100
AcDbBlockBegin
2
*PAPER_SPACE
0
ENDBLK
5
1D
100
AcDbEntity
100
AcDbBlockEnd
0
ENDSEC
0
SECTION
2
ENTITIES
0
LWPOLYLINE
5
100
100
AcDbEntity
8
0
100
AcDbPolyline
90
4
70
1
43
0.0
10
58.700000000000003
20
15.099999999999996
42
0.99999999999999989
10
61.70000000000001
20
15.1
10
61.70000000000001
20
24.099999999999998
42
0.99999999999999989
10
58.700000000000003
20
24.099999999999998
0
LWPOLYLINE
5
101
100
AcDbEntity
8
0
100
AcDbPolyline
90
4
70
1
43
0.0
10
52.336363636363636
20
15.099999999999996
42
0.99999999999999989
10
55.336363636363643
20
15.1
10
55.336363636363643
20
24.099999999999998
42
0.99999999999999989
10
52.336363636363636
20
24.099999999999998
0
LWPOLYLINE
5
102
100
AcDbEntity
8
0
100
AcDbPolyline
90
4
70
1
43
0.0
10
45.972727272727276
20
15.099999999999996
42
0.99999999999999989
10
48.972727272727283
20
15.1
10
48.972727272727283
20
24.099999999999998
42
0.99999999999999989
10
45.972727272727276
20
24.099999999999998
0
LWPOLYLINE
5
103
100
AcDbEntity
8
0
100
AcDbPolyline
90
4
70
1
43
0.0
10
39.609090909090916
20
15.099999999999996
42
0.99999999999999989
10
42.609090909090916
20
15.1
10
42.609090909090916
20
24.099999999999998
42
0.99999999999999989
10
39.609090909090909
20
24.099999999999998
0
LWPOLYLINE
5
104
100
AcDbEntity
8
0
100
AcDbPolyline
90
4
70
1
43
0.0
10
33.24545454545455
20
15.099999999999996
42
0.99999999999999989
10
36.24545454545455
20
15.099999999999987
10
36.24545454545455
20
24.099999999999998
42
0.99999999999999989
10
33.24545454545455
20
24.099999999999998
0
LWPOLYLINE
5
105
100
AcDbEntity
8
0
100
AcDbPolyline
90
4
70
1
43
0.0
10
26.88181818181819
20
15.099999999999996
42
0.99999999999999989
10
29.881818181818186
20
15.099999999999996
10
29.881818181818186
20
24.099999999999998
42
0.99999999999999989
10
26.881818181818183
20
24.099999999999998
0
LWPOLYLINE
5
106
100
AcDbEntity
8
0
100
AcDbPolyline
90
4
70
1
43
0.0
10
20.518181818181823
20
15.099999999999996
42
0.99999999999999989
10
23.518181818181819
20
15.099999999999996
10
23.518181818181819
20
24.099999999999998
42
0.99999999999999989
10
20.518181818181816
20
24.099999999999998
0
LWPOLYLINE
5
107
100
AcDbEntity
8
0
100
AcDbPolyline
90
4
70
1
43
0.0
10
14.154545454545463
20
15.099999999999996
42
0.99999999999999989
10
17.154545454545456
20
15.099999999999991
10
17.154545454545463
20
24.099999999999998
42
0.99999999999999989
10
14.15454545454546
20
24.099999999999998
0
LWPOLYLINE
5
108
100
AcDbEntity
8
0
100
AcDbPolyline
90
4
70
1
43
0.0
10
7.7909090909090963
20
15.099999999999996
42
0.99999999999999989
10
10.790909090909096
20
15.099999999999996
10
10.790909090909096
20
24.099999999999998
42
0.99999999999999989
10
7.7909090909090928
20
24.099999999999998
0
LWPOLYLINE
5
109
100
AcDbEntity
8
0
100
AcDbPolyline
90
4
70
1
43
0.0
10
1.4272727272727292
20
15.099999999999996
42
0.99999999999999989
10
4.4272727272727286
20
15.099999999999996
10
4.4272727272727295
20
24.099999999999998
42
0.99999999999999989
10
1.4272727272727259
20
24.099999999999998
0
LWPOLYLINE
5
110
100
AcDbEntity
8
0
100
AcDbPolyline
90
4
70
1
43
0.0
10
-4.9363636363636285
20
15.099999999999996
42
0.99999999999999989
10
-1.9363636363636294
20
15.099999999999996
10
-1.9363636363636283
20
24.099999999999998
42
0.99999999999999989
10
-4.9363636363636321
20
24.099999999999998
0
LWPOLYLINE
5
111
100
AcDbEntity
8
0
100
AcDbPolyline
90
4
70
1
43
0.0
10
-11.299999999999994
20
15.099999999999996
42
0.99999999999999989
10
-8.2999999999999972
20
15.099999999999991
10
-8.2999999999999954
20
24.099999999999998
42
0.99999999999999989
10
-11.299999999999999
20
24.099999999999998
0
LWPOLYLINE
5
112
100
AcDbEntity
8
0
100
AcDbPolyline
90
20
70
1
43
0.0
10
20.400000000000009
20
-0.40000000000001812
10
20.400000000000009
20
-6.4000000000000163
10
30.700000000000003
20
-6.4000000000000217
10
30.70000000000001
20
-0.40000000000001812
10
56.70000000000001
20
-0.40000000000003144
10
56.70000000000001
20
-6.4000000000000306
10
66.700000000000003
20
-6.4000000000000057
10
66.700000000000003
20
35.599999999999994
10
56.70000000000001
20
35.599999999999966
10
56.70000000000001
20
29.599999999999973
10
30.700000000000003
20
29.59999999999998
10
30.70000000000001
20
35.59999999999998
10
20.400000000000009
20
35.59999999999998
10
20.400000000000009
20
29.59999999999998
10
-5.5999999999999961
20
29.599999999999991
10
-5.599999999999989
20
35.599999999999994
10
-15.899999999999999
20
35.599999999999994
10
-15.899999999999999
20
-6.4000000000000057
10
-5.5999999999999943
20
-6.4000000000000075
10
-5.599999999999989
20
-0.4000000000000048
0
ENDSEC
0
SECTION
2
OBJECTS
0
DICTIONARY
5
C
100
AcDbDictionary
3
ACAD_GROUP
350
D
3
ACAD_MLINESTYLE
350
17
0
DICTIONARY
5
D
100
AcDbDictionary
0
DICTIONARY
5
1A
330
C
100
AcDbDictionary
0
DICTIONARY
5
17
100
AcDbDictionary
0
ENDSEC
0
EOF
