0
SECTION
2
HEADER
9
$INSUNITS
70
4
9
$ACADVER
1
AC1014
9
$HANDSEED
5
FFFF
0
ENDSEC
0
SECTION
2
TABLES
0
TABLE
2
VPORT
5
8
100
AcDbSymbolTable
0
ENDTAB
0
TABLE
2
LTYPE
5
5
100
AcDbSymbolTable
0
LTYPE
5
14
100
AcDbSymbolTableRecord
100
AcDbLinetypeTableRecord
2
BYBLOCK
70
0
0
LTYPE
5
15
100
AcDbSymbolTableRecord
100
AcDbLinetypeTableRecord
2
BYLAYER
70
0
0
ENDTAB
0
TABLE
2
LAYER
5
2
100
AcDbSymbolTable
70
2
0
LAYER
5
50
100
AcDbSymbolTableRecord
100
AcDbLayerTableRecord
2
0
70
0
6
CONTINUOUS
0
ENDTAB
0
TABLE
2
STYLE
5
3
100
AcDbSymbolTable
70
1
0
STYLE
5
11
100
AcDbSymbolTableRecord
100
AcDbTextStyleTableRecord
2
STANDARD
70
0
0
ENDTAB
0
TABLE
2
VIEW
5
6
100
AcDbSymbolTable
70
0
0
ENDTAB
0
TABLE
2
UCS
5
7
100
AcDbSymbolTable
70
0
0
ENDTAB
0
TABLE
2
APPID
5
9
100
AcDbSymbolTable
70
2
0
APPID
5
12
100
AcDbSymbolTableRecord
100
AcDbRegAppTableRecord
2
ACAD
70
0
0
ENDTAB
0
TABLE
2
DIMSTYLE
5
A
100
AcDbSymbolTable
70
1
0
ENDTAB
0
TABLE
2
BLOCK_RECORD
5
1
100
AcDbSymbolTable
70
1
0
BLOCK_RECORD
5
1F
100
AcDbSymbolTableRecord
100
AcDbBlockTableRecord
2
*MODEL_SPACE
0
BLOCK_RECORD
5
1B
100
AcDbSymbolTableRecord
100
AcDbBlockTableRecord
2
*PAPER_SPACE
0
ENDTAB
0
ENDSEC
0
SECTION
2
BLOCKS
0
BLOCK
5
20
100
AcDbEntity
100
AcDbBlockBegin
2
*MODEL_SPACE
0
ENDBLK
5
21
100
AcDbEntity
100
AcDbBlockEnd
0
BLOCK
5
1C
100
AcDbEntity
100
AcDbBlockBegin
2
*PAPER_SPACE
0
ENDBLK
5
1D
100
AcDbEntity
100
AcDbBlockEnd
0
ENDSEC
0
SECTION
2
ENTITIES
0
LWPOLYLINE
5
100
100
AcDbEntity
8
0
100
AcDbPolyline
90
8
70
1
43
0.0
10
36.399999999999977
20
21.600000000000001
10
36.399999999999977
20
13.600000000000001
42
-0.41421356237309509
10
34.399999999999977
20
11.600000000000001
10
16.399999999999977
20
11.6
42
-0.41421356237309509
10
14.399999999999977
20
13.599999999999998
10
14.399999999999974
20
21.600000000000001
42
-0.41421356237309509
10
16.399999999999974
20
23.600000000000001
10
34.399999999999977
20
23.600000000000001
42
-0.41421356237309509
0
LWPOLYLINE
5
101
100
AcDbEntity
8
0
100
AcDbPolyline
90
8
70
1
43
0.0
10
-16.400000000000016
20
25.600000000000001
10
-16.400000000000016
20
24.549874371066199
42
-0.904534033733291
10
-16.40000000000002
20
4.6501256289338002
10
-16.400000000000016
20
3.5999999999999988
10
-18.40000000000002
20
3.5999999999999988
10
-18.400000000000016
20
4.6501256289338002
42
-0.904534033733291
10
-18.40000000000002
20
24.549874371066199
10
-18.40000000000002
20
25.600000000000001
0
LWPOLYLINE
5
102
100
AcDbEntity
8
0
100
AcDbPolyline
90
44
70
1
43
0.0
10
-34.100000000000023
20
-0.4000000000000048
10
-22.100000000000016
20
-0.4000000000000048
10
-22.100000000000016
20
-6.4000000000000039
10
-12.700000000000017
20
-6.4000000000000039
10
-12.700000000000017
20
-0.4000000000000048
10
-0.70000000000001616
20
-0.4000000000000048
10
-0.70000000000001616
20
-6.4000000000000039
10
8.6999999999999833
20
-6.4000000000000039
10
8.6999999999999833
20
-0.4000000000000048
10
20.699999999999985
20
-0.4000000000000048
10
20.699999999999985
20
-6.4000000000000039
10
30.09999999999998
20
-6.4000000000000039
10
30.09999999999998
20
-0.4000000000000048
10
42.09999999999998
20
-0.4000000000000048
10
42.09999999999998
20
-6.4000000000000039
10
51.499999999999986
20
-6.4000000000000039
10
51.499999999999986
20
-0.4000000000000048
10
63.499999999999986
20
-0.4000000000000048
10
63.499999999999986
20
-6.4000000000000039
10
72.899999999999991
20
-6.4000000000000039
10
72.899999999999991
20
-0.4000000000000048
10
84.899999999999977
20
-0.4000000000000048
10
84.899999999999977
20
29.600000000000001
10
72.899999999999991
20
29.600000000000001
10
72.899999999999991
20
35.599999999999994
10
63.499999999999986
20
35.599999999999994
10
63.499999999999986
20
29.600000000000001
10
51.499999999999986
20
29.600000000000001
10
51.499999999999986
20
35.599999999999994
10
42.09999999999998
20
35.599999999999994
10
42.09999999999998
20
29.600000000000001
10
30.09999999999998
20
29.600000000000001
10
30.09999999999998
20
35.599999999999994
10
20.699999999999985
20
35.599999999999994
10
20.699999999999985
20
29.600000000000001
10
8.6999999999999833
20
29.600000000000001
10
8.6999999999999833
20
35.599999999999994
10
-0.70000000000001616
20
35.599999999999994
10
-0.70000000000001616
20
29.600000000000001
10
-12.700000000000017
20
29.600000000000001
10
-12.700000000000017
20
35.599999999999994
10
-22.100000000000016
20
35.599999999999994
10
-22.100000000000016
20
29.600000000000001
10
-34.100000000000023
20
29.600000000000001
0
ENDSEC
0
SECTION
2
OBJECTS
0
DICTIONARY
5
C
100
AcDbDictionary
3
ACAD_GROUP
350
D
3
ACAD_MLINESTYLE
350
17
0
DICTIONARY
5
D
100
AcDbDictionary
0
DICTIONARY
5
1A
330
C
100
AcDbDictionary
0
DICTIONARY
5
17
100
AcDbDictionary
0
ENDSEC
0
EOF
